<svg width="99" height="113" viewBox="0 0 99 113" fill="none" xmlns="http://www.w3.org/2000/svg">
<path d="M49.0842 32.7228C53.4235 32.7228 57.5851 30.999 60.6534 27.9306C63.7218 24.8623 65.4456 20.7007 65.4456 16.3614C65.4456 12.0221 63.7218 7.8605 60.6534 4.79214C57.5851 1.72378 53.4235 0 49.0842 0C44.7449 0 40.5833 1.72378 37.5149 4.79214C34.4466 7.8605 32.7228 12.0221 32.7228 16.3614C32.7228 20.7007 34.4466 24.8623 37.5149 27.9306C40.5833 30.999 44.7449 32.7228 49.0842 32.7228ZM49.0842 52.0292C36.2132 40.0854 19.0883 32.7228 0 32.7228V92.7145C19.0883 92.7145 36.2132 100.077 49.0842 112.021C61.9551 100.077 79.0801 92.7145 98.1684 92.7145V32.7228C79.0801 32.7228 61.9551 40.0854 49.0842 52.0292Z" fill="white"/>
</svg>  